HIERARCHY
ROOT hip
{
	OFFSET 0.000000 0.000000 0.000000 
	CHANNELS 6 Xposition Yposition Zposition Xrotation Zrotation Yrotation
	JOINT abdomen
	{
		OFFSET 0.000000 3.402643 0.000000 
		CHANNELS 3 Xrotation Zrotation Yrotation
		JOINT chest
		{
			OFFSET 0.000000 8.438565 -0.680529 
			CHANNELS 3 Xrotation Zrotation Yrotation
			JOINT neck
			{
				OFFSET 0.000000 10.207942 -0.272212 
				CHANNELS 3 Xrotation Zrotation Yrotation
				JOINT head
				{
					OFFSET 0.000000 3.130431 0.000000 
					CHANNELS 3 Xrotation Zrotation Yrotation
					End Site
					{
						OFFSET 0.000000 3.130435 0.000000 
					}
				}
			}
			JOINT lCollar
			{
				OFFSET 3.470700 6.669187 -0.816635 
				CHANNELS 3 Yrotation Zrotation Xrotation
				JOINT lShldr
				{
					OFFSET 3.198488 0.000000 0.000000 
					CHANNELS 3 Zrotation Yrotation Xrotation
					JOINT lForeArm
					{
						OFFSET 10.139888 0.000000 0.000000 
						CHANNELS 3 Yrotation Zrotation Xrotation
						JOINT lHand
						{
							OFFSET 8.370511 0.000000 0.000000 
							CHANNELS 3 Zrotation Yrotation Xrotation
							End Site
							{
								OFFSET 4.083176 0.000000 0.000000 
							}
						}
					}
				}
			}
			JOINT rCollar
			{
				OFFSET -3.470700 6.669187 -0.816635 
				CHANNELS 3 Yrotation Zrotation Xrotation
				JOINT rShldr
				{
					OFFSET -3.198488 0.000000 0.000000 
					CHANNELS 3 Zrotation Yrotation Xrotation
					JOINT rForeArm
					{
						OFFSET -10.139888 0.000000 0.000000 
						CHANNELS 3 Yrotation Zrotation Xrotation
						JOINT rHand
						{
							OFFSET -8.370511 0.000000 0.000000 
							CHANNELS 3 Zrotation Yrotation Xrotation
							End Site
							{
								OFFSET -4.083176 0.000000 0.000000 
							}
						}
					}
				}
			}
		}
	}
	JOINT lThigh
	{
		OFFSET 5.308129 -1.633274 1.361059 
		CHANNELS 3 Xrotation Zrotation Yrotation
		JOINT lShin
		{
			OFFSET -2.041588 -20.007561 0.000000 
			CHANNELS 3 Xrotation Zrotation Yrotation
			JOINT lFoot
			{
				OFFSET 0.000000 -19.190928 -1.224953 
				CHANNELS 3 Xrotation Yrotation Zrotation
				End Site
				{
					OFFSET 0.000000 -2.449906 4.627600 
				}
			}
		}
	}
	JOINT rThigh
	{
		OFFSET -5.308129 -1.633274 1.361059 
		CHANNELS 3 Xrotation Zrotation Yrotation
		JOINT rShin
		{
			OFFSET 2.041588 -20.007561 0.000000 
			CHANNELS 3 Xrotation Zrotation Yrotation
			JOINT rFoot
			{
				OFFSET 0.000000 -19.190928 -1.224953 
				CHANNELS 3 Xrotation Yrotation Zrotation
				End Site
				{
					OFFSET 0.000000 -2.449906 4.627600 
				}
			}
		}
	}
}
MOTION
Frames: 19
Frame Time: 0.033333
4.959655 39.417896 -6.290187 9.885810 -5.840332 0.575166 0.000000 0.000000 0.000000 11.005859 0.000000 6.103516 -7.659183 4.483122 0.324026 -17.563580 -1.078097 -4.870811 -1.150331 21.437014 25.000000 -86.836510 -27.480968 -2.954985 -39.504036 -2.933839 72.318443 -15.530093 -0.955224 -59.051315 -13.483753 -15.316338 20.666348 71.285553 24.936857 68.097069 19.992687 -34.695389 27.347160 33.668835 7.185346 -79.681458 -35.748356 13.903467 17.868193 81.164139 15.644318 0.309745 -12.159753 -8.026766 5.419919 -62.735466 -17.214540 -1.096977 135.584229 -12.421411 6.093761 24.578514 -5.327509 12.069875 
4.726064 40.611622 -6.256705 12.431760 -6.381299 1.046559 0.000000 0.000000 0.000000 8.096178 0.618771 6.357652 -7.597779 5.152826 0.377419 -15.468593 -2.229309 -4.932545 -2.630046 22.080290 25.000000 -85.947937 -26.859032 -3.400612 -42.253666 -6.484073 72.314301 -17.025301 0.851743 -59.510525 -14.733028 -15.850713 20.145432 73.234032 21.132196 70.035423 21.582563 -35.624329 24.811707 33.682629 4.421554 -80.099174 -34.987732 12.820474 17.653599 73.986465 16.553625 0.648788 -6.366678 -10.222949 1.961025 -62.701336 -17.938726 -1.319170 126.716949 -8.661805 6.826870 26.022163 -7.195893 7.925421 
4.394829 42.315613 -6.209931 15.015949 -7.265559 0.634668 0.000000 0.000000 0.000000 4.963473 1.829057 6.741081 -7.486978 4.882416 0.354254 -13.798913 -0.153486 -3.051965 -3.794330 21.237837 25.000000 -84.598373 -26.038025 -4.094411 -44.704182 -8.956722 74.080063 -18.538803 1.507582 -59.573116 -15.601820 -16.113873 19.803886 74.562416 17.945650 71.503624 23.298708 -36.217381 22.899742 33.514927 2.641368 -80.339058 -32.817329 12.427727 17.918699 64.072914 17.036263 1.054940 3.313855 -12.916912 -0.691375 -60.440830 -17.019342 -1.172931 114.372421 -2.802441 7.760947 28.557598 -9.961729 2.944558 
4.113577 44.178627 -6.263600 18.823664 -7.149382 0.880625 0.000000 0.000000 0.000000 0.537512 2.216699 6.935215 -7.314599 4.292266 0.305897 -12.708277 2.584047 -1.212579 -4.321720 21.370625 25.000000 -85.983505 -26.146843 -3.404379 -45.779369 -10.339655 78.251801 -19.459393 0.604357 -59.059525 -16.979578 -18.048006 18.758986 77.647789 14.983649 73.988602 23.068766 -35.487991 18.870924 32.238331 0.246609 -80.496773 -32.722359 10.437893 17.295311 54.403637 16.753492 1.362046 14.563991 -11.802444 0.877104 -58.528156 -16.619362 -1.163740 100.279861 2.490350 8.258224 31.796898 -12.769231 0.681332 
3.868987 45.949760 -6.307664 22.091507 -6.030074 1.522469 0.000000 0.000000 0.000000 -3.487929 1.735063 6.896265 -6.662329 3.502522 0.249623 -11.148882 3.805809 -0.105157 -4.470442 21.261595 25.000000 -87.767944 -25.923996 -2.529724 -45.133533 -10.493152 80.953461 -16.870630 -1.859130 -58.284901 -16.497957 -15.345119 19.764078 74.934776 13.328966 72.764023 24.286684 -35.760544 16.272949 32.408768 -2.807503 -80.683731 -33.560291 7.810153 16.327818 48.132645 16.989977 1.711460 24.616100 -12.844746 -0.886869 -55.789787 -16.201017 -1.198039 85.480049 5.449353 7.951082 34.997356 -14.066099 2.366930 
3.435623 47.368507 -6.169796 23.030903 -5.935406 1.671733 0.000000 0.000000 0.000000 -5.504275 2.721786 7.140457 -4.933936 1.782479 0.120111 -10.772314 5.667984 1.467837 -5.386562 16.456753 25.000000 -82.340523 -23.470297 -5.271401 -47.226517 -11.233403 81.516403 -16.280416 -5.637672 -57.068066 -16.455877 -13.507884 20.340683 73.385864 13.431009 71.814842 24.372297 -35.115463 17.259119 33.125641 -4.533827 -80.765045 -34.612278 8.072334 16.219063 48.335876 16.520668 1.601524 30.802715 -14.006718 -2.889461 -50.251114 -13.583365 -0.701560 70.513130 7.158104 7.121022 39.466568 -14.685127 2.421012 
3.012971 48.007904 -5.914068 21.789972 -5.370692 1.977557 0.000000 0.000000 0.000000 -5.126362 3.423783 7.291237 -3.398494 -0.338752 -0.028596 -10.936782 7.312309 2.844423 -5.194150 12.257578 25.000000 -78.194786 -20.566645 -7.399165 -49.370049 -10.907972 81.628510 -17.441498 -8.370370 -55.959671 -15.463741 -12.474901 20.910316 72.026260 13.632873 70.970665 24.480759 -35.263985 18.840206 34.717659 -4.987945 -80.895027 -36.769939 9.487479 16.245756 57.955105 15.384945 0.900152 29.047457 -13.592632 -1.265851 -43.244186 -11.414399 -0.421497 58.041672 6.689200 5.850779 42.800877 -14.339742 -0.577791 
2.525533 47.893501 -5.682989 20.764391 -5.234330 2.168679 0.000000 0.000000 0.000000 -4.731455 4.506140 7.537968 -2.238073 -2.324320 -0.181215 -11.322746 8.334826 4.492561 -4.573000 9.658532 25.000000 -75.752739 -17.632229 -8.714865 -52.241001 -10.713246 82.800835 -19.469505 -10.057072 -54.852966 -14.909564 -12.635263 20.993666 71.655281 14.029955 70.661728 24.606045 -35.483986 20.286695 36.354584 -4.536982 -81.027519 -40.987827 11.859872 16.125648 71.503853 14.873761 0.306488 19.291771 -7.217317 14.588912 -37.712116 -9.374315 -0.119407 49.491508 5.802888 4.843769 44.908504 -12.157747 -0.146477 
2.101326 47.092281 -5.514831 20.171608 -4.804837 1.957844 0.000000 0.000000 0.000000 -4.355971 5.492000 7.765949 -1.752766 -4.324490 -0.324062 -11.655272 9.310009 5.734073 -2.913740 8.979916 25.000000 -75.962921 -15.520764 -8.694098 -53.691818 -9.803163 84.384743 -19.595121 -12.309010 -53.934700 -14.334332 -14.088450 20.745834 72.194183 15.143878 70.744370 24.482119 -34.779587 18.941784 37.011868 -6.307023 -81.171028 -46.024036 13.983850 15.687623 84.961426 15.164748 0.144664 11.123584 -5.235738 25.934401 -34.362350 -7.977663 0.120747 45.015854 5.041445 4.246112 47.461174 -9.906631 5.033634 
1.725481 45.735687 -5.416647 19.588078 -4.279220 1.515992 0.000000 0.000000 0.000000 -3.607419 6.530117 8.007622 -1.807972 -6.526330 -0.483401 -12.342214 9.964848 7.061449 -2.314975 6.031087 25.000000 -73.294624 -12.274924 -10.183484 -55.729607 -8.891760 83.682129 -18.536308 -15.115034 -53.262035 -13.776825 -16.140345 20.364336 73.115845 17.157831 70.849831 24.255299 -33.854050 17.943628 37.385643 -7.943800 -81.249817 -51.808079 15.326823 14.720584 98.379494 16.305008 0.387963 3.701220 -5.467160 34.943703 -32.914337 -7.049462 0.335992 44.963615 4.963206 4.210862 46.100662 -10.909069 10.446927 
1.404972 43.971378 -5.309166 18.208935 -3.497746 1.086351 0.000000 0.000000 0.000000 -1.722327 7.135480 8.126284 -2.476377 -8.382142 -0.621158 -13.248521 10.132195 8.407085 -1.801842 4.255808 24.883524 -72.296356 -9.500759 -10.843141 -56.633995 -7.000121 83.214828 -16.123877 -19.187506 -52.783932 -12.800939 -18.100578 20.190355 73.868912 19.795507 70.702965 23.744253 -32.777702 16.613230 36.809822 -9.727423 -81.187454 -56.810902 16.158888 13.694400 111.183517 16.996496 0.702182 3.470075 -4.915321 27.518923 -32.030865 -6.796636 0.356741 49.258080 4.787374 4.610528 36.782330 -11.866720 9.968542 
0.920232 41.857414 -5.283666 16.505783 -3.979919 -0.446354 0.000000 0.000000 0.000000 1.076234 8.484852 8.411912 -4.077759 -9.568871 -0.707641 -13.630577 10.587115 10.569442 0.467879 6.432215 24.603447 -75.641258 -9.092099 -9.147500 -55.247646 -4.241735 85.579964 -13.426120 -23.241705 -52.680298 -10.862008 -20.202427 20.403801 75.232384 23.630033 70.620888 22.659386 -32.648598 19.361532 37.704391 -7.120247 -81.239113 -62.433365 18.930704 13.041339 123.749466 18.783499 1.457562 2.043133 -3.084026 23.187235 -32.689533 -4.540266 1.080425 55.663509 4.142273 5.072229 24.842754 -13.365449 6.174264 
0.647077 40.098801 -5.314307 15.321881 -4.502748 -1.095513 0.000000 0.000000 0.000000 3.447282 9.650805 8.646632 -5.781357 -10.225756 -0.754125 -14.637135 9.545686 11.767718 1.722191 7.359594 24.394297 -79.158386 -7.629408 -7.370051 -55.890617 -0.277197 87.008972 -11.970036 -25.290575 -52.838898 -9.563282 -21.696066 20.614187 76.593178 28.391590 70.306618 19.700026 -32.886059 25.605204 40.110008 -2.237656 -81.192215 -67.238968 20.054722 12.039436 132.711029 20.083364 2.113850 4.639840 -3.812507 11.957445 -36.294243 -3.925117 1.457522 65.678757 4.756463 6.136230 11.413983 -15.050315 -0.964142 
0.479526 39.153687 -5.410345 15.243532 -4.504424 -2.378441 0.000000 0.000000 0.000000 4.465571 10.223434 8.773913 -7.000341 -11.092037 -0.811306 -15.338494 9.226563 13.008924 2.758207 6.770005 24.247629 -80.746803 -5.898418 -6.589614 -56.488426 2.474304 87.233940 -11.003902 -25.980818 -53.084106 -7.729655 -23.200045 21.108194 78.137497 32.999783 70.098106 17.313511 -33.114979 30.743299 41.841717 1.706314 -80.925323 -70.787498 20.789331 11.237229 136.456711 20.247820 2.303668 4.136040 -2.005834 11.348392 -40.038658 -3.808563 1.688536 72.081848 5.459516 6.892178 5.960979 -15.119254 -4.773544 
0.384140 39.121933 -5.417139 15.538494 -4.083909 -3.263917 0.000000 0.000000 0.000000 4.383923 10.058979 8.726287 -7.446054 -11.814379 -0.869760 -15.062157 9.245876 13.755939 3.948809 5.410554 24.151539 -80.676125 -5.015034 -6.665195 -55.548737 3.388581 86.548042 -9.515027 -25.550419 -54.086273 -6.479855 -24.080784 21.506199 79.358376 36.292538 69.997856 15.900665 -33.309570 34.275002 43.076096 4.356039 -80.654282 -71.602592 21.401333 11.195483 135.010590 19.775131 2.159495 4.939521 -1.858255 12.275062 -41.123837 -4.120682 1.669950 72.987808 6.093765 7.090739 5.178956 -15.208261 -6.207661 
0.434891 39.873302 -5.393265 16.772482 -3.048419 -2.920474 0.000000 0.000000 0.000000 2.709042 8.984252 8.500438 -7.497661 -12.253989 -0.901782 -13.568843 9.455538 13.514243 3.785859 5.076151 24.194464 -81.215683 -4.112679 -6.395858 -54.869511 3.896026 85.307671 -8.516208 -25.561563 -54.785980 -7.239167 -24.816832 21.068888 80.467400 37.676781 70.280144 16.841658 -34.334915 40.028278 45.404552 8.564977 -80.094063 -70.587845 20.728243 11.297941 128.942993 18.140474 1.513709 7.513617 -3.389816 13.149778 -40.397118 -5.360796 1.235138 69.124184 6.416391 6.835251 8.004792 -15.352252 -6.608794 
0.593518 41.207157 -5.351709 18.876286 -1.746503 -1.651748 0.000000 0.000000 0.000000 -0.305158 7.226461 8.125981 -7.159747 -12.312156 -0.905062 -11.356215 10.083008 12.603612 3.763508 8.058140 24.009583 -84.940475 -3.387973 -4.390332 -53.996937 4.459500 83.778191 -8.024385 -25.019392 -55.224297 -9.302206 -25.660765 19.999895 81.082642 36.816235 70.817810 20.434912 -35.759674 43.943890 47.669525 10.129571 -79.978592 -68.736076 19.011768 11.275667 119.330368 15.405680 0.544766 11.482987 -5.454144 18.155836 -38.418713 -6.707941 0.746711 61.368847 5.946891 6.010980 15.143149 -15.410998 -3.853039 
0.804370 42.927128 -5.257225 20.753504 -0.684902 -0.269390 0.000000 0.000000 0.000000 -3.334922 5.362051 7.725567 -6.305617 -12.075618 -0.885218 -9.466954 11.043741 11.307161 3.340199 8.960184 24.024807 -86.394592 -1.837536 -3.615535 -55.012280 4.900496 81.946106 -9.022535 -24.480768 -54.885624 -11.218793 -26.156710 19.011255 81.126511 35.287273 71.213387 24.435043 -36.744850 47.363468 49.767590 10.584529 -80.111908 -64.275528 16.669083 11.826912 107.101891 12.349376 -0.409248 16.209978 -6.889411 16.995981 -34.998447 -7.479810 0.303817 51.151154 4.640563 4.752740 26.348871 -14.721558 2.444944 
1.017503 44.703026 -5.210841 22.413095 -0.523622 0.311306 0.000000 0.000000 0.000000 -5.944023 4.235004 7.489645 -5.207015 -11.465782 -0.841534 -8.462674 11.572159 10.002490 3.610376 9.835012 23.925917 -87.454948 -1.548528 -3.033066 -54.486702 4.707951 82.375595 -9.726350 -24.318436 -54.556259 -12.330539 -25.277575 18.683094 79.801811 34.153553 70.744591 27.500368 -37.266029 50.345146 50.472069 10.861670 -80.120369 -59.191261 14.732388 12.606894 94.385841 9.539194 -1.130241 12.853498 -3.977681 28.360830 -33.044495 -8.114319 0.010294 43.186123 4.699725 3.985776 35.952976 -15.238898 2.641567 
